PathFileType	4	(X/Y/Z)	OpenSim_Sub09_CSBaseline_Magnet.trc
DataRate	CameraRate	NumFrames	NumMarkers	Units	OrigDataRate	OrigDataStartFrame	OrigNumFrames
100	100	26	8	m	100	2921	5840
Frame#	Time	torso_imu_offset_imu	pelvis_imu_offset_imu	tibia_r_imu_offset_imu	femur_r_imu_offset_imu	tibia_l_imu_offset_imu	femur_l_imu_offset_imu	toes_r_imu_offset_imu	toes_l_imu_offset_imu
				X1	Y1	Z1	X2	Y2	Z2	X3	Y3	Z3	X4	Y4	Z4	X5	Y5	Z5	X6	Y6	Z6	X7	Y7	Z7	X8		Y8	Z8	

2921	29.20000000	-0.92520937	-0.14535454	0.07998883	-0.66632702	0.12781056	-0.63929685	-0.49257602	-0.68821588	-0.12126449	-0.64534488	-0.52396812	0.14749078	-0.73058628	0.32652106	0.01456123	-0.74666845	-0.10346590	0.13294032	-0.66015871	-0.23911871	-0.36251601	-0.58695369	-0.22865198	-0.48333012
2922	29.21000000	-0.93206290	-0.14590044	0.07472105	-0.67453383	0.12657362	-0.63118968	-0.48941419	-0.69358056	-0.12135732	-0.65210623	-0.52269340	0.14738091	-0.73378270	0.32044973	0.02009503	-0.74540358	-0.10091972	0.13833509	-0.65857181	-0.24445746	-0.35772784	-0.57951027	-0.23758623	-0.48335090
2923	29.22000000	-0.92556939	-0.14554009	0.08169715	-0.67783207	0.12905625	-0.63423594	-0.48430380	-0.70168726	-0.12273430	-0.64769299	-0.52544379	0.15426744	-0.73764157	0.32225437	0.01975652	-0.74797723	-0.10529512	0.13782084	-0.65848252	-0.24740733	-0.35145528	-0.57939030	-0.24158353	-0.48438085
2924	29.23000000	-0.92313745	-0.14757605	0.06980054	-0.67247465	0.13562354	-0.63546568	-0.47365305	-0.70894085	-0.12637575	-0.64420315	-0.52914142	0.15128434	-0.73291147	0.32075719	0.01995077	-0.74510050	-0.09986720	0.13843937	-0.65448395	-0.25093689	-0.34311431	-0.58530153	-0.24684356	-0.48389412
2925	29.24000000	-0.92716742	-0.14810601	0.07616746	-0.67848466	0.14003819	-0.61916209	-0.46414612	-0.71096788	-0.13487395	-0.64267186	-0.52288870	0.15191257	-0.73696904	0.32144205	0.02877918	-0.73967783	-0.10194543	0.14349473	-0.65392306	-0.25355057	-0.33788968	-0.57716490	-0.24368998	-0.48595353
2926	29.25000000	-0.93116667	-0.14655146	0.06679695	-0.67750450	0.14444062	-0.62098768	-0.44495406	-0.71807906	-0.13896675	-0.64291814	-0.52757839	0.15288681	-0.73067466	0.32930675	0.03203569	-0.74079738	-0.10566781	0.14391726	-0.65171253	-0.25452188	-0.33575577	-0.58376192	-0.23965452	-0.48426635
2927	29.26000000	-0.92253201	-0.14281896	0.06157797	-0.68203745	0.14621275	-0.61874253	-0.43810643	-0.72675639	-0.13505359	-0.65039024	-0.52583116	0.15080033	-0.72424234	0.33863086	0.03398602	-0.74328091	-0.10329142	0.14730734	-0.65693661	-0.24965554	-0.33096941	-0.60263399	-0.22715255	-0.46692951
2928	29.27000000	-0.92862359	-0.15276385	0.05829592	-0.68840824	0.15243491	-0.61549838	-0.42976370	-0.73661434	-0.14545756	-0.64483428	-0.52252710	0.14657440	-0.72693988	0.34490122	0.04743270	-0.74422970	-0.10564572	0.15349182	-0.65983266	-0.25783853	-0.31889534	-0.61586163	-0.20530694	-0.46083744
2929	29.28000000	-0.92677955	-0.15249597	0.05649085	-0.68405667	0.15426208	-0.61437760	-0.41297623	-0.74724005	-0.14228971	-0.65100899	-0.52372626	0.14162251	-0.72021221	0.35524272	0.04784529	-0.73832011	-0.09983681	0.16443165	-0.66124177	-0.26478374	-0.30931793	-0.62578087	-0.19051279	-0.44877755
2930	29.29000000	-0.92595305	-0.15563483	0.04753565	-0.69051847	0.16732839	-0.60593826	-0.39792145	-0.75631243	-0.14906739	-0.65256363	-0.52891507	0.14001488	-0.71090116	0.36643710	0.05886785	-0.73496156	-0.10060909	0.17198840	-0.66529894	-0.25917019	-0.30358466	-0.63296638	-0.17904842	-0.44245308
2931	29.30000000	-0.92187773	-0.15441075	0.04927144	-0.68656059	0.17456739	-0.60269053	-0.37975233	-0.76081637	-0.14688996	-0.65644780	-0.52212645	0.13071808	-0.70540189	0.37443779	0.06226681	-0.73380984	-0.09823016	0.17836818	-0.66974259	-0.26083262	-0.29232151	-0.64321431	-0.17347033	-0.43687490
2932	29.31000000	-0.92334534	-0.15904907	0.03804845	-0.69790267	0.17198439	-0.59838351	-0.36027962	-0.76784651	-0.14672122	-0.65492492	-0.51861395	0.12972418	-0.70551673	0.37449305	0.07231369	-0.72722948	-0.09064499	0.18805442	-0.67308382	-0.26943266	-0.27715212	-0.65741747	-0.17180582	-0.42520987
2933	29.32000000	-0.91923792	-0.16458641	0.03602418	-0.69493308	0.17716970	-0.59558570	-0.34311524	-0.77911444	-0.15128918	-0.65952125	-0.51496852	0.12208103	-0.69978418	0.38316210	0.07426387	-0.72642862	-0.09211068	0.20314735	-0.68137920	-0.27289549	-0.26570657	-0.66306134	-0.16727528	-0.40475738
2934	29.33000000	-0.92409661	-0.16425291	0.03096548	-0.69540986	0.18146419	-0.59539467	-0.32450633	-0.78184865	-0.15316529	-0.66636379	-0.51143805	0.11596331	-0.69754359	0.39567976	0.07245615	-0.72289199	-0.08755623	0.20338627	-0.68405007	-0.27399414	-0.24184748	-0.67007368	-0.16721071	-0.39727344
2935	29.34000000	-0.92422695	-0.17038894	0.02759079	-0.69241328	0.18980326	-0.59585509	-0.30708557	-0.78915467	-0.15766564	-0.67446508	-0.50019409	0.11123955	-0.68958219	0.39827199	0.07811204	-0.72220797	-0.07978793	0.21781491	-0.69261953	-0.28261772	-0.22464098	-0.66829812	-0.16307863	-0.39492478
2936	29.35000000	-0.91913919	-0.16910696	0.02758002	-0.69301811	0.18965272	-0.59478564	-0.28893913	-0.79525001	-0.15446376	-0.68315699	-0.49218734	0.10374612	-0.68492295	0.40917090	0.08553149	-0.72111576	-0.08123603	0.21723010	-0.70059136	-0.28422808	-0.19424748	-0.67683992	-0.16262491	-0.39545994
2937	29.36000000	-0.92197754	-0.17379799	0.02650789	-0.69601496	0.18851245	-0.58544409	-0.26575165	-0.80805081	-0.15314598	-0.69153865	-0.48857639	0.08510481	-0.67639597	0.42231014	0.09848314	-0.71406231	-0.07753458	0.21337373	-0.70202495	-0.30148984	-0.16249286	-0.67186955	-0.16050569	-0.38727814
2938	29.37000000	-0.92343833	-0.17778453	0.01810305	-0.69430590	0.18905488	-0.58576441	-0.24702524	-0.80757459	-0.16825131	-0.70171381	-0.47820949	0.07855153	-0.67479684	0.42167806	0.10531287	-0.71745977	-0.07864848	0.21445466	-0.70988201	-0.30608727	-0.12403436	-0.67614621	-0.16262114	-0.38527173
2939	29.38000000	-0.91922456	-0.17508456	0.01660923	-0.69357555	0.18659604	-0.58638481	-0.23689710	-0.81378301	-0.17100920	-0.71346852	-0.46150736	0.06271188	-0.67365612	0.42261628	0.12112196	-0.71339321	-0.07764790	0.22316243	-0.71113006	-0.31953628	-0.08790740	-0.67835578	-0.15861968	-0.38740950
2940	29.39000000	-0.91881780	-0.18061153	0.01355579	-0.69562235	0.19174654	-0.58735971	-0.21427029	-0.81933484	-0.17158754	-0.71838374	-0.44987449	0.04222157	-0.66918413	0.42529556	0.13777786	-0.70534588	-0.07478688	0.22739007	-0.71039768	-0.33370267	-0.04536441	-0.67553021	-0.16183986	-0.39115796
2941	29.40000000	-0.91457043	-0.18039053	0.01074729	-0.69658631	0.19643346	-0.57903076	-0.18952335	-0.82280892	-0.17554137	-0.72781367	-0.44067734	0.03247600	-0.66660623	0.42553728	0.15274901	-0.70663764	-0.07633273	0.24061509	-0.70926804	-0.34483912	-0.00573947	-0.67669065	-0.16102959	-0.38073117
2942	29.41000000	-0.91806575	-0.17717902	0.00804489	-0.69433313	0.20211629	-0.57568086	-0.17301513	-0.82942263	-0.16214036	-0.73899518	-0.42135067	0.01362412	-0.66243132	0.42358665	0.17110094	-0.70547375	-0.07645521	0.24069974	-0.70116290	-0.36599257	0.02906563	-0.68334634	-0.16015200	-0.38218765
2943	29.42000000	-0.91666858	-0.18242904	0.01042814	-0.69767284	0.20813283	-0.57315876	-0.16152842	-0.83158400	-0.14819542	-0.75029034	-0.40499073	0.00738191	-0.65977822	0.42356262	0.18016063	-0.70219759	-0.06193945	0.24387818	-0.69130428	-0.38594930	0.07112672	-0.68462767	-0.16077998	-0.38438901
2944	29.43000000	-0.91794416	-0.18745623	0.00696387	-0.70013412	0.21816355	-0.57752043	-0.14054994	-0.83776286	-0.13029331	-0.75746759	-0.39613678	-0.01019809	-0.65665334	0.43694497	0.18049040	-0.69360225	-0.05572006	0.24521493	-0.67410854	-0.40062276	0.10285496	-0.68417116	-0.15800322	-0.37924093
2945	29.44000000	-0.91639953	-0.18855165	0.00798134	-0.69298611	0.22481332	-0.57712982	-0.13021719	-0.83727001	-0.11690900	-0.76370444	-0.38553338	-0.01499375	-0.64771242	0.43478614	0.17641411	-0.69240826	-0.04800768	0.26043927	-0.66641577	-0.41445249	0.13116778	-0.68669185	-0.16241909	-0.38441147
2946	29.45000000	-0.91640670	-0.18510710	0.00854537	-0.70133549	0.22041608	-0.57219487	-0.12054137	-0.83645425	-0.09580099	-0.77280129	-0.36486758	-0.02781556	-0.64436248	0.44028605	0.17207001	-0.69105443	-0.04291681	0.25759140	-0.65274267	-0.43058064	0.14772063	-0.68274478	-0.15593696	-0.38649250
